<?xml version="1.0" encoding="UTF-8"?>
<svg width="349px" height="50px" viewBox="0 0 349 50" version="1.1" xmlns="http://www.w3.org/2000/svg" xmlns:xlink="http://www.w3.org/1999/xlink">
    <title>User List Item</title>
    <g id="Page-1" stroke="none" stroke-width="1" fill="none" fill-rule="evenodd">
        <g id="Instagram" transform="translate(-757.000000, -1546.000000)">
            <g id="User-List-Item" transform="translate(757.000000, 1546.000000)">
                <g id="Button" transform="translate(220.000000, 12.000000)">
                    <rect id="Rectangle" stroke="#DADBDA" stroke-linecap="square" x="0" y="0" width="100" height="26" rx="2"></rect>
                    <text id="Following" font-family="SFProDisplay-Medium, SF Pro Display" font-size="13" font-weight="400" letter-spacing="0.600000024" fill="#000000">
                        <tspan x="20" y="17">Following</tspan>
                    </text>
                </g>
                <path d="M340.5,23 C341.329687,23 342,23.6703125 342,24.5 C342,25.3296875 341.329687,26 340.5,26 C339.670313,26 339,25.3296875 339,24.5 C339,23.6703125 339.670313,23 340.5,23 Z M335.5,23 C336.325,23 337,23.6703125 337,24.5 C337,25.3296875 336.329687,26 335.5,26 C334.670313,26 334,25.3296875 334,24.5 C334,23.6703125 334.670313,23 335.5,23 Z M345.5,23 C346.329687,23 347,23.6703125 347,24.5 C347,25.3296875 346.329687,26 345.5,26 C344.670313,26 344,25.3296875 344,24.5 C344,23.6703125 344.670313,23 345.5,23 Z" id="Combined-Shape" fill="#000000"></path>
                <g id="Group-2" transform="translate(61.000000, 8.000000)" fill="#000000">
                    <text id="testprofilepicture" font-family="SFProDisplay-Medium, SF Pro Display" font-size="14" font-weight="400">
                        <tspan x="0" y="13">testprofilepicture</tspan>
                    </text>
                    <text id="testprofilepic" font-family="SFProDisplay-Regular, SF Pro Display" font-size="13" font-weight="normal">
                        <tspan x="0" y="30">testprofilepic</tspan>
                    </text>
                </g>
                <circle id="Oval" fill="#7F7F96" cx="25" cy="25" r="25"></circle>
            </g>
        </g>
    </g>
</svg>