<svg xmlns="http://www.w3.org/2000/svg" width="347" height="50" viewBox="0 0 347 50"><g transform="translate(220 12)"><rect width="100" height="26" rx="2" fill="none" stroke="#dadbda" stroke-linecap="square" stroke-miterlimit="10" stroke-width="1"/><text transform="translate(20 5)" font-size="13" font-family="SegoeUI, Segoe UI" letter-spacing="0.046em"><tspan x="0" y="14">Following</tspan></text></g><path d="M10,1.5A1.5,1.5,0,1,1,11.5,3,1.5,1.5,0,0,1,10,1.5Zm-5,0A1.5,1.5,0,1,1,6.5,3,1.5,1.5,0,0,1,5,1.5Zm-5,0A1.5,1.5,0,1,1,1.5,3,1.5,1.5,0,0,1,0,1.5Z" transform="translate(334 23)"/><g transform="translate(61 8)"><text font-size="14" font-family="SegoeUI, Segoe UI"><tspan x="0" y="15">testprofilepicture</tspan></text><text transform="translate(0 18)" font-size="13" font-family="SegoeUI, Segoe UI"><tspan x="0" y="14">testprofilepic</tspan></text></g><circle cx="25" cy="25" r="25" fill="#7f7f96"/></svg>